<?xml version="1.0" encoding="utf-8"?>
<!-- Generator: Adobe Illustrator 16.0.0, SVG Export Plug-In . SVG Version: 6.00 Build 0)  -->
<!DOCTYPE svg PUBLIC "-//W3C//DTD SVG 1.1//EN" "http://www.w3.org/Graphics/SVG/1.1/DTD/svg11.dtd">
<svg version="1.1" id="Layer_1" xmlns="http://www.w3.org/2000/svg" xmlns:xlink="http://www.w3.org/1999/xlink" x="0px" y="0px"
	 width="841.89px" height="595.28px" viewBox="0 0 841.89 595.28" enable-background="new 0 0 841.89 595.28" xml:space="preserve">
<path d="M111.109,36.165h4.419v12.382c0,5.581-2.675,7.529-6.977,7.529c-1.017,0-2.354-0.174-3.226-0.465l0.494-3.575
	c0.61,0.203,1.395,0.349,2.268,0.349c1.86,0,3.022-0.843,3.022-3.896V36.165z"/>
<path d="M137.153,45.756c0,6.424-3.895,10.319-9.621,10.319c-5.814,0-9.215-4.389-9.215-9.97c0-5.872,3.75-10.261,9.535-10.261
	C133.868,35.844,137.153,40.35,137.153,45.756z M122.997,46.019c0,3.836,1.802,6.54,4.767,6.54c2.994,0,4.709-2.849,4.709-6.656
	c0-3.518-1.686-6.541-4.739-6.541C124.741,39.361,122.997,42.21,122.997,46.019z"/>
<path d="M144.477,55.756l-6.279-19.591h4.855l2.383,8.284c0.669,2.326,1.279,4.563,1.744,7.005h0.087
	c0.495-2.354,1.104-4.68,1.774-6.918l2.5-8.371h4.708l-6.598,19.591H144.477z"/>
<path d="M105.325,60.325h8.793v1.769h-6.686v5.427h6.178v1.745h-6.178v7.388h-2.107V60.325z"/>
<path d="M119.229,60.325v16.328h-2.108V60.325H119.229z"/>
<path d="M122.909,76.653V60.325h2.302l5.233,8.261c1.211,1.914,2.156,3.634,2.931,5.306l0.048-0.024
	c-0.194-2.181-0.243-4.167-0.243-6.711v-6.832h1.987v16.328h-2.132l-5.185-8.285c-1.138-1.817-2.229-3.683-3.052-5.451l-0.073,0.024
	c0.122,2.059,0.17,4.021,0.17,6.735v6.977H122.909z"/>
<path d="M141.486,71.517l-1.695,5.136h-2.18l5.548-16.328h2.543l5.572,16.328h-2.253l-1.744-5.136H141.486z M146.841,69.87
	l-1.599-4.7c-0.363-1.066-0.605-2.035-0.848-2.98h-0.048c-0.243,0.969-0.509,1.962-0.824,2.956l-1.599,4.724H146.841z"/>
<path d="M153.67,76.653V60.325h2.302l5.232,8.261c1.211,1.914,2.156,3.634,2.931,5.306l0.049-0.024
	c-0.193-2.181-0.242-4.167-0.242-6.711v-6.832h1.987v16.328h-2.132l-5.185-8.285c-1.139-1.817-2.229-3.683-3.053-5.451l-0.073,0.024
	c0.121,2.059,0.169,4.021,0.169,6.735v6.977H153.67z"/>
<path d="M181.017,76.121c-0.775,0.387-2.326,0.775-4.313,0.775c-4.603,0-8.067-2.908-8.067-8.262c0-5.111,3.464-8.576,8.528-8.576
	c2.035,0,3.319,0.437,3.876,0.727l-0.508,1.721c-0.8-0.388-1.938-0.679-3.295-0.679c-3.828,0-6.371,2.447-6.371,6.735
	c0,3.997,2.301,6.565,6.274,6.565c1.283,0,2.592-0.267,3.439-0.679L181.017,76.121z"/>
<path d="M192.109,68.998h-6.347v5.887h7.074v1.769h-9.182V60.325h8.818v1.769h-6.71v5.16h6.347V68.998z"/>
<g>
	<path fill="#FFFFFF" d="M101.854,59.494c-0.913-0.49-1.042-2.051-1.025-3.463c0.082-0.244,0.138-0.505,0.138-0.798
		c0-0.198-0.038-0.4-0.093-0.601c0.008-0.231,0.013-0.439,0.01-0.613c-0.001-0.037-0.015-0.065-0.022-0.098
		c0.011-0.023,0.027-0.04,0.035-0.066c0.068-0.228,0.13-0.377,0.207-0.503c0.258-0.045,0.503-0.172,0.743-0.448
		c0.171-0.198,0.212-0.515,0-0.707c-0.029-0.026-0.058-0.053-0.087-0.079c-0.177-0.16-0.395-0.183-0.606-0.078
		c-0.054,0.027-0.096,0.053-0.144,0.079c-0.078-0.072-0.179-0.126-0.313-0.131c-0.456-0.016-0.918-0.117-1.375-0.156
		c-0.261-0.022-0.409,0.13-0.458,0.321c-0.219-0.035-0.407-0.063-0.528-0.067c-1.437-0.051-2.887,0.072-4.327,0.072
		c-0.108-0.098-0.252-0.16-0.429-0.136c-1.843,0.25-3.658,0.218-5.516,0.215c-0.218,0-0.439,0.005-0.662,0.011
		c-0.054-0.184-0.202-0.327-0.455-0.307c-0.979,0.079-1.973,0.047-2.955,0.081c-0.879,0.031-1.959,0.112-2.803-0.157
		c-0.215-0.068-0.38,0.007-0.485,0.139c-0.003,0-0.004-0.001-0.007-0.001c-2.421,0.232-4.929,0-7.37,0.041
		c-3.143,0.052-6.285,0.055-9.427,0.115c-0.004,0-0.006,0.002-0.01,0.002c-0.151-0.045-0.321-0.028-0.469,0.113
		c-0.725,0.691-1.267,1.542-1.91,2.314c-0.694,0.833-1.47,1.682-2.007,2.628c-0.066,0.025-0.133,0.065-0.192,0.136
		c-0.239,0.279-0.523,0.539-0.725,0.847c-0.304,0.465-0.453,0.999-0.851,1.402c-0.037,0.038-0.068,0.08-0.104,0.118
		c-0.313,0.284-0.631,0.564-0.929,0.861c-0.497,0.494-0.912,1.067-1.326,1.638c-0.311,0.329-0.596,0.672-0.854,1.034
		c-0.364,0.358-0.402,0.475-0.2,0.284c-0.082,0.117-0.165,0.233-0.248,0.35c-0.102,0.128-0.2,0.258-0.295,0.391
		c-0.15,0.2-0.299,0.4-0.469,0.592c-0.48,0.54-1.16,1.008-1.516,1.648c-0.328,0.59-0.719,1.161-1.25,1.586
		c-0.075,0.06-0.116,0.127-0.142,0.196c-0.114-0.001-0.232,0.044-0.333,0.164c-1.545,1.825-1.821,3.893-1.191,6.207
		c0.548,2.008,3.506,1.676,4.982,1.704c2.226,0.042,4.456,0,6.688-0.062c0.042,0.001,0.084,0.004,0.126,0.005
		c0.054,0.001,0.1-0.01,0.152-0.012c4.791-0.135,9.585-0.351,14.347-0.029c0.176,0.012,0.298-0.057,0.378-0.159
		c0.087-0.01,0.174-0.021,0.261-0.03c0.02,0.002,0.033,0.011,0.055,0.012c4.207,0.091,8.657,0.405,12.844,0.063
		c0.292-0.024,0.444-0.247,0.47-0.476c0.05-0.044,0.087-0.104,0.127-0.16c0.046-0.014,0.093-0.025,0.14-0.057
		c0.417-0.279,0.659-0.592,0.923-1.018c0.397-0.644,0.939-1.139,1.524-1.605c0.491-0.393,0.816-0.852,1.082-1.418
		c0.295-0.631,0.854-1.266,1.307-1.803c0.019-0.023,0.024-0.048,0.039-0.071c1.143-1.173,2.077-2.604,3.143-3.859
		c0.077-0.091,0.152-0.187,0.229-0.278c0.298-0.3,0.565-0.625,0.802-0.972c0.772-0.943,1.539-1.898,2.287-2.85
		c0.064-0.083,0.091-0.17,0.103-0.258c0.341-0.378,0.742-0.668,1.069-1.054C102.154,60.043,102.156,59.657,101.854,59.494z"/>
	<g>
		
			<line fill="none" stroke="#000000" stroke-width="0.1" stroke-miterlimit="10" x1="87.615" y1="70.763" x2="100.913" y2="54.457"/>
		
			<line fill="none" stroke="#000000" stroke-width="0.1" stroke-miterlimit="10" x1="87.466" y1="71.302" x2="100.764" y2="54.997"/>
		<line fill="none" stroke="#000000" stroke-width="0.1" stroke-miterlimit="10" x1="87.359" y1="71.85" x2="100.656" y2="55.543"/>
		
			<line fill="none" stroke="#000000" stroke-width="0.1" stroke-miterlimit="10" x1="87.359" y1="72.201" x2="100.657" y2="55.896"/>
		
			<line fill="none" stroke="#000000" stroke-width="0.1" stroke-miterlimit="10" x1="87.359" y1="72.554" x2="100.657" y2="56.248"/>
		
			<line fill="none" stroke="#000000" stroke-width="0.1" stroke-miterlimit="10" x1="87.267" y1="73.021" x2="100.564" y2="56.715"/>
		
			<line fill="none" stroke="#000000" stroke-width="0.1" stroke-miterlimit="10" x1="87.359" y1="73.322" x2="100.657" y2="57.017"/>
		
			<line fill="none" stroke="#000000" stroke-width="0.1" stroke-miterlimit="10" x1="87.466" y1="73.617" x2="100.764" y2="57.312"/>
		
			<line fill="none" stroke="#000000" stroke-width="0.1" stroke-miterlimit="10" x1="87.615" y1="73.769" x2="100.913" y2="57.463"/>
		
			<line fill="none" stroke="#000000" stroke-width="0.1" stroke-miterlimit="10" x1="87.615" y1="74.135" x2="100.913" y2="57.829"/>
		
			<line fill="none" stroke="#000000" stroke-width="0.1" stroke-miterlimit="10" x1="87.615" y1="74.466" x2="100.913" y2="58.161"/>
		
			<line fill="none" stroke="#000000" stroke-width="0.1" stroke-miterlimit="10" x1="87.861" y1="74.535" x2="101.159" y2="58.229"/>
		
			<line fill="none" stroke="#000000" stroke-width="0.1" stroke-miterlimit="10" x1="88.064" y1="74.657" x2="101.362" y2="58.351"/>
		
			<line fill="none" stroke="#000000" stroke-width="0.1" stroke-miterlimit="10" x1="88.175" y1="74.891" x2="101.473" y2="58.585"/>
		
			<line fill="none" stroke="#000000" stroke-width="0.1" stroke-miterlimit="10" x1="88.293" y1="75.143" x2="101.592" y2="58.837"/>
		
			<line fill="none" stroke="#000000" stroke-width="0.1" stroke-miterlimit="10" x1="88.352" y1="75.373" x2="101.649" y2="59.067"/>
		
			<line fill="none" stroke="#000000" stroke-width="0.1" stroke-miterlimit="10" x1="88.491" y1="75.614" x2="101.789" y2="59.309"/>
		
			<line fill="none" stroke="#000000" stroke-width="0.1" stroke-miterlimit="10" x1="88.667" y1="75.732" x2="101.965" y2="59.427"/>
		
			<line fill="none" stroke="#000000" stroke-width="0.1" stroke-miterlimit="10" x1="88.821" y1="75.942" x2="102.154" y2="59.594"/>
	</g>
	<g>
		<line fill="none" stroke="#000000" stroke-width="0.1" stroke-miterlimit="10" x1="49.791" y1="68.83" x2="88.503" y2="68.83"/>
		<line fill="none" stroke="#000000" stroke-width="0.1" stroke-miterlimit="10" x1="49.535" y1="69.219" x2="88.248" y2="69.219"/>
		<line fill="none" stroke="#000000" stroke-width="0.1" stroke-miterlimit="10" x1="49.307" y1="69.607" x2="88.019" y2="69.607"/>
		<line fill="none" stroke="#000000" stroke-width="0.1" stroke-miterlimit="10" x1="49.182" y1="69.996" x2="87.894" y2="69.996"/>
		<line fill="none" stroke="#000000" stroke-width="0.1" stroke-miterlimit="10" x1="48.869" y1="70.384" x2="87.581" y2="70.384"/>
		<line fill="none" stroke="#000000" stroke-width="0.1" stroke-miterlimit="10" x1="48.753" y1="70.773" x2="87.466" y2="70.773"/>
		<line fill="none" stroke="#000000" stroke-width="0.1" stroke-miterlimit="10" x1="48.744" y1="71.162" x2="87.456" y2="71.162"/>
		<line fill="none" stroke="#000000" stroke-width="0.1" stroke-miterlimit="10" x1="48.682" y1="71.55" x2="87.394" y2="71.55"/>
		<line fill="none" stroke="#000000" stroke-width="0.1" stroke-miterlimit="10" x1="48.577" y1="71.938" x2="87.289" y2="71.938"/>
		<line fill="none" stroke="#000000" stroke-width="0.1" stroke-miterlimit="10" x1="48.494" y1="72.327" x2="87.206" y2="72.327"/>
		<line fill="none" stroke="#000000" stroke-width="0.1" stroke-miterlimit="10" x1="48.494" y1="72.716" x2="87.206" y2="72.716"/>
		<line fill="none" stroke="#000000" stroke-width="0.1" stroke-miterlimit="10" x1="48.682" y1="73.104" x2="87.394" y2="73.104"/>
		<line fill="none" stroke="#000000" stroke-width="0.1" stroke-miterlimit="10" x1="48.744" y1="73.493" x2="87.456" y2="73.493"/>
		<line fill="none" stroke="#000000" stroke-width="0.1" stroke-miterlimit="10" x1="48.885" y1="73.881" x2="87.597" y2="73.881"/>
		<line fill="none" stroke="#000000" stroke-width="0.1" stroke-miterlimit="10" x1="48.932" y1="74.27" x2="87.644" y2="74.27"/>
		<line fill="none" stroke="#000000" stroke-width="0.1" stroke-miterlimit="10" x1="48.916" y1="74.659" x2="87.628" y2="74.659"/>
		<line fill="none" stroke="#000000" stroke-width="0.1" stroke-miterlimit="10" x1="49.244" y1="75.047" x2="87.956" y2="75.047"/>
		<line fill="none" stroke="#000000" stroke-width="0.1" stroke-miterlimit="10" x1="49.463" y1="75.436" x2="88.175" y2="75.436"/>
		<line fill="none" stroke="#000000" stroke-width="0.1" stroke-miterlimit="10" x1="49.791" y1="75.824" x2="88.503" y2="75.824"/>
	</g>
	<g>
		
			<line fill="none" stroke="#000000" stroke-width="0.5" stroke-miterlimit="10" x1="89.092" y1="76.213" x2="102.428" y2="59.816"/>
		
			<line fill="none" stroke="#000000" stroke-width="0.5" stroke-miterlimit="10" x1="89.092" y1="68.441" x2="102.428" y2="52.045"/>
		<line fill="none" stroke="#000000" stroke-width="0.5" stroke-miterlimit="10" x1="89.238" y1="76.213" x2="50.171" y2="76.213"/>
		<line fill="none" stroke="#000000" stroke-width="0.5" stroke-miterlimit="10" x1="89.238" y1="68.441" x2="50.171" y2="68.441"/>
		<path fill="none" stroke="#000000" stroke-width="0.5" stroke-miterlimit="10" d="M50.284,68.441
			c-0.831,0.454-1.772,1.74-1.772,3.886s0.887,3.505,1.772,3.886"/>
		<path fill="none" stroke="#000000" stroke-width="0.5" stroke-miterlimit="10" d="M102.544,52.243
			c-0.832,0.454-1.772,1.74-1.772,3.886s0.886,3.505,1.772,3.886"/>
		<path fill="none" stroke="#000000" stroke-width="0.5" stroke-miterlimit="10" d="M89.238,68.441
			c-0.832,0.454-1.772,1.74-1.772,3.886s0.886,3.505,1.772,3.886"/>
		<line fill="none" stroke="#000000" stroke-width="0.5" stroke-miterlimit="10" x1="50.284" y1="68.441" x2="63.62" y2="52.045"/>
		
			<line fill="none" stroke="#000000" stroke-width="0.5" stroke-miterlimit="10" x1="102.544" y1="52.045" x2="63.477" y2="52.045"/>
	</g>
</g>
<g>
	<path fill="#FFFFFF" d="M101.854,51.323c-0.913-0.49-1.042-2.051-1.025-3.463c0.082-0.244,0.138-0.505,0.138-0.798
		c0-0.198-0.038-0.4-0.093-0.601c0.008-0.231,0.013-0.439,0.01-0.613c-0.001-0.037-0.015-0.065-0.022-0.098
		c0.011-0.023,0.027-0.04,0.035-0.066c0.068-0.228,0.13-0.377,0.207-0.503c0.258-0.045,0.503-0.172,0.743-0.448
		c0.171-0.198,0.212-0.515,0-0.707c-0.029-0.026-0.058-0.053-0.087-0.079c-0.177-0.16-0.395-0.183-0.606-0.078
		c-0.054,0.027-0.096,0.053-0.144,0.079c-0.078-0.072-0.179-0.126-0.313-0.131c-0.456-0.016-0.918-0.117-1.375-0.156
		c-0.261-0.022-0.409,0.13-0.458,0.321c-0.219-0.035-0.407-0.063-0.528-0.067c-1.437-0.051-2.887,0.072-4.327,0.072
		c-0.108-0.098-0.252-0.16-0.429-0.136c-1.843,0.25-3.658,0.218-5.516,0.215c-0.218,0-0.439,0.005-0.662,0.011
		c-0.054-0.184-0.202-0.327-0.455-0.307c-0.979,0.079-1.973,0.047-2.955,0.081c-0.879,0.031-1.959,0.112-2.803-0.157
		c-0.215-0.068-0.38,0.007-0.485,0.139c-0.003,0-0.004-0.001-0.007-0.001c-2.421,0.232-4.929,0-7.37,0.041
		c-3.143,0.052-6.285,0.055-9.427,0.115c-0.004,0-0.006,0.002-0.01,0.002c-0.151-0.045-0.321-0.028-0.469,0.113
		c-0.725,0.691-1.267,1.542-1.91,2.314c-0.694,0.833-1.47,1.682-2.007,2.628c-0.066,0.025-0.133,0.065-0.192,0.136
		c-0.239,0.279-0.523,0.539-0.725,0.847c-0.304,0.465-0.453,0.999-0.851,1.402c-0.037,0.038-0.068,0.08-0.104,0.118
		c-0.313,0.284-0.631,0.564-0.929,0.861c-0.497,0.494-0.912,1.067-1.326,1.638c-0.311,0.329-0.596,0.672-0.854,1.034
		c-0.364,0.358-0.402,0.475-0.2,0.284c-0.082,0.117-0.165,0.233-0.248,0.35c-0.102,0.128-0.2,0.258-0.295,0.391
		c-0.15,0.2-0.299,0.4-0.469,0.592c-0.48,0.54-1.16,1.008-1.516,1.648c-0.328,0.59-0.719,1.161-1.25,1.586
		c-0.075,0.06-0.116,0.127-0.142,0.196c-0.114-0.001-0.232,0.044-0.333,0.164c-1.545,1.825-1.821,3.893-1.191,6.207
		c0.548,2.008,3.506,1.676,4.982,1.704c2.226,0.042,4.456,0,6.688-0.062c0.042,0.001,0.084,0.004,0.126,0.005
		c0.054,0.001,0.1-0.01,0.152-0.012c4.791-0.135,9.585-0.351,14.347-0.029c0.176,0.012,0.298-0.057,0.378-0.159
		c0.087-0.01,0.174-0.021,0.261-0.03c0.02,0.002,0.033,0.011,0.055,0.012c4.207,0.091,8.657,0.405,12.844,0.063
		c0.292-0.024,0.444-0.247,0.47-0.476c0.05-0.044,0.087-0.104,0.127-0.16c0.046-0.014,0.093-0.025,0.14-0.057
		c0.417-0.279,0.659-0.592,0.923-1.018c0.397-0.644,0.939-1.139,1.524-1.605c0.491-0.393,0.816-0.852,1.082-1.418
		c0.295-0.631,0.854-1.266,1.307-1.803c0.019-0.023,0.024-0.048,0.039-0.071c1.143-1.173,2.077-2.604,3.143-3.859
		c0.077-0.091,0.152-0.187,0.229-0.278c0.298-0.3,0.565-0.625,0.802-0.972c0.772-0.943,1.539-1.898,2.287-2.85
		c0.064-0.083,0.091-0.17,0.103-0.258c0.341-0.378,0.742-0.668,1.069-1.054C102.154,51.873,102.156,51.486,101.854,51.323z"/>
	<g>
		
			<line fill="none" stroke="#000000" stroke-width="0.1" stroke-miterlimit="10" x1="87.615" y1="62.592" x2="100.913" y2="46.286"/>
		
			<line fill="none" stroke="#000000" stroke-width="0.1" stroke-miterlimit="10" x1="87.466" y1="63.131" x2="100.764" y2="46.826"/>
		
			<line fill="none" stroke="#000000" stroke-width="0.1" stroke-miterlimit="10" x1="87.359" y1="63.679" x2="100.656" y2="47.373"/>
		<line fill="none" stroke="#000000" stroke-width="0.1" stroke-miterlimit="10" x1="87.359" y1="64.03" x2="100.657" y2="47.725"/>
		
			<line fill="none" stroke="#000000" stroke-width="0.1" stroke-miterlimit="10" x1="87.359" y1="64.383" x2="100.657" y2="48.077"/>
		<line fill="none" stroke="#000000" stroke-width="0.1" stroke-miterlimit="10" x1="87.267" y1="64.85" x2="100.564" y2="48.544"/>
		
			<line fill="none" stroke="#000000" stroke-width="0.1" stroke-miterlimit="10" x1="87.359" y1="65.151" x2="100.657" y2="48.846"/>
		
			<line fill="none" stroke="#000000" stroke-width="0.1" stroke-miterlimit="10" x1="87.466" y1="65.446" x2="100.764" y2="49.141"/>
		
			<line fill="none" stroke="#000000" stroke-width="0.1" stroke-miterlimit="10" x1="87.615" y1="65.598" x2="100.913" y2="49.292"/>
		
			<line fill="none" stroke="#000000" stroke-width="0.1" stroke-miterlimit="10" x1="87.615" y1="65.964" x2="100.913" y2="49.658"/>
		<line fill="none" stroke="#000000" stroke-width="0.1" stroke-miterlimit="10" x1="87.615" y1="66.295" x2="100.913" y2="49.99"/>
		
			<line fill="none" stroke="#000000" stroke-width="0.1" stroke-miterlimit="10" x1="87.861" y1="66.364" x2="101.159" y2="50.059"/>
		<line fill="none" stroke="#000000" stroke-width="0.1" stroke-miterlimit="10" x1="88.064" y1="66.486" x2="101.362" y2="50.18"/>
		<line fill="none" stroke="#000000" stroke-width="0.1" stroke-miterlimit="10" x1="88.175" y1="66.72" x2="101.473" y2="50.414"/>
		
			<line fill="none" stroke="#000000" stroke-width="0.1" stroke-miterlimit="10" x1="88.293" y1="66.972" x2="101.592" y2="50.666"/>
		
			<line fill="none" stroke="#000000" stroke-width="0.1" stroke-miterlimit="10" x1="88.352" y1="67.202" x2="101.649" y2="50.896"/>
		
			<line fill="none" stroke="#000000" stroke-width="0.1" stroke-miterlimit="10" x1="88.491" y1="67.443" x2="101.789" y2="51.138"/>
		
			<line fill="none" stroke="#000000" stroke-width="0.1" stroke-miterlimit="10" x1="88.667" y1="67.562" x2="101.965" y2="51.256"/>
		
			<line fill="none" stroke="#000000" stroke-width="0.1" stroke-miterlimit="10" x1="88.821" y1="67.771" x2="102.154" y2="51.423"/>
	</g>
	<g>
		<line fill="none" stroke="#000000" stroke-width="0.1" stroke-miterlimit="10" x1="49.791" y1="60.659" x2="88.503" y2="60.659"/>
		<line fill="none" stroke="#000000" stroke-width="0.1" stroke-miterlimit="10" x1="49.535" y1="61.048" x2="88.248" y2="61.048"/>
		<line fill="none" stroke="#000000" stroke-width="0.1" stroke-miterlimit="10" x1="49.307" y1="61.436" x2="88.019" y2="61.436"/>
		<line fill="none" stroke="#000000" stroke-width="0.1" stroke-miterlimit="10" x1="49.182" y1="61.825" x2="87.894" y2="61.825"/>
		<line fill="none" stroke="#000000" stroke-width="0.1" stroke-miterlimit="10" x1="48.869" y1="62.213" x2="87.581" y2="62.213"/>
		<line fill="none" stroke="#000000" stroke-width="0.1" stroke-miterlimit="10" x1="48.753" y1="62.602" x2="87.466" y2="62.602"/>
		<line fill="none" stroke="#000000" stroke-width="0.1" stroke-miterlimit="10" x1="48.744" y1="62.991" x2="87.456" y2="62.991"/>
		<line fill="none" stroke="#000000" stroke-width="0.1" stroke-miterlimit="10" x1="48.682" y1="63.379" x2="87.394" y2="63.379"/>
		<line fill="none" stroke="#000000" stroke-width="0.1" stroke-miterlimit="10" x1="48.577" y1="63.768" x2="87.289" y2="63.768"/>
		<line fill="none" stroke="#000000" stroke-width="0.1" stroke-miterlimit="10" x1="48.494" y1="64.156" x2="87.206" y2="64.156"/>
		<line fill="none" stroke="#000000" stroke-width="0.1" stroke-miterlimit="10" x1="48.494" y1="64.545" x2="87.206" y2="64.545"/>
		<line fill="none" stroke="#000000" stroke-width="0.1" stroke-miterlimit="10" x1="48.682" y1="64.934" x2="87.394" y2="64.934"/>
		<line fill="none" stroke="#000000" stroke-width="0.1" stroke-miterlimit="10" x1="48.744" y1="65.322" x2="87.456" y2="65.322"/>
		<line fill="none" stroke="#000000" stroke-width="0.1" stroke-miterlimit="10" x1="48.885" y1="65.71" x2="87.597" y2="65.71"/>
		<line fill="none" stroke="#000000" stroke-width="0.1" stroke-miterlimit="10" x1="48.932" y1="66.099" x2="87.644" y2="66.099"/>
		<line fill="none" stroke="#000000" stroke-width="0.1" stroke-miterlimit="10" x1="48.916" y1="66.488" x2="87.628" y2="66.488"/>
		<line fill="none" stroke="#000000" stroke-width="0.1" stroke-miterlimit="10" x1="49.244" y1="66.876" x2="87.956" y2="66.876"/>
		<line fill="none" stroke="#000000" stroke-width="0.1" stroke-miterlimit="10" x1="49.463" y1="67.265" x2="88.175" y2="67.265"/>
		<line fill="none" stroke="#000000" stroke-width="0.1" stroke-miterlimit="10" x1="49.791" y1="67.653" x2="88.503" y2="67.653"/>
	</g>
	<g>
		
			<line fill="none" stroke="#44B649" stroke-width="0.5" stroke-miterlimit="10" x1="89.092" y1="68.042" x2="102.428" y2="51.646"/>
		
			<line fill="none" stroke="#44B649" stroke-width="0.5" stroke-miterlimit="10" x1="89.092" y1="60.271" x2="102.428" y2="43.874"/>
		<line fill="none" stroke="#44B649" stroke-width="0.5" stroke-miterlimit="10" x1="89.238" y1="68.042" x2="50.171" y2="68.042"/>
		<line fill="none" stroke="#44B649" stroke-width="0.5" stroke-miterlimit="10" x1="89.238" y1="60.271" x2="50.171" y2="60.271"/>
		<path fill="none" stroke="#44B649" stroke-width="0.5" stroke-miterlimit="10" d="M50.284,60.271
			c-0.831,0.454-1.772,1.74-1.772,3.886s0.887,3.505,1.772,3.886"/>
		<path fill="none" stroke="#44B649" stroke-width="0.5" stroke-miterlimit="10" d="M102.544,44.072
			c-0.832,0.454-1.772,1.74-1.772,3.886s0.886,3.505,1.772,3.886"/>
		<path fill="none" stroke="#44B649" stroke-width="0.5" stroke-miterlimit="10" d="M89.238,60.271
			c-0.832,0.454-1.772,1.74-1.772,3.886s0.886,3.505,1.772,3.886"/>
		<line fill="none" stroke="#44B649" stroke-width="0.5" stroke-miterlimit="10" x1="50.284" y1="60.271" x2="63.62" y2="43.874"/>
		
			<line fill="none" stroke="#44B649" stroke-width="0.5" stroke-miterlimit="10" x1="102.544" y1="43.874" x2="63.477" y2="43.874"/>
	</g>
</g>
<g>
	<path fill="#FFFFFF" d="M101.854,43.219c-0.914-0.49-1.042-2.051-1.026-3.463c0.083-0.244,0.138-0.505,0.138-0.798
		c0-0.198-0.039-0.4-0.093-0.601c0.008-0.231,0.013-0.439,0.01-0.613c-0.001-0.037-0.015-0.065-0.022-0.098
		c0.011-0.023,0.027-0.04,0.035-0.066c0.068-0.228,0.13-0.377,0.207-0.503c0.257-0.045,0.503-0.172,0.743-0.448
		c0.171-0.198,0.212-0.515,0-0.707c-0.029-0.026-0.058-0.053-0.087-0.079c-0.176-0.16-0.395-0.183-0.606-0.078
		c-0.054,0.027-0.096,0.053-0.144,0.079c-0.079-0.072-0.179-0.126-0.314-0.131c-0.456-0.016-0.918-0.117-1.375-0.156
		c-0.26-0.022-0.409,0.13-0.458,0.321c-0.218-0.035-0.407-0.063-0.528-0.067c-1.437-0.051-2.887,0.072-4.327,0.072
		c-0.108-0.098-0.252-0.16-0.429-0.136c-1.843,0.25-3.658,0.218-5.516,0.215c-0.217,0-0.439,0.005-0.662,0.011
		c-0.053-0.184-0.202-0.327-0.455-0.307c-0.979,0.079-1.973,0.047-2.955,0.081c-0.878,0.031-1.958,0.112-2.803-0.157
		c-0.215-0.068-0.38,0.007-0.485,0.139c-0.003,0-0.004-0.001-0.007-0.001c-2.421,0.232-4.929,0-7.37,0.041
		c-3.143,0.052-6.285,0.055-9.427,0.115c-0.004,0-0.006,0.002-0.01,0.002c-0.151-0.045-0.321-0.028-0.469,0.113
		c-0.724,0.691-1.267,1.542-1.91,2.314c-0.694,0.833-1.469,1.682-2.006,2.628c-0.067,0.025-0.133,0.065-0.193,0.136
		c-0.239,0.279-0.523,0.539-0.724,0.847c-0.304,0.465-0.454,0.999-0.851,1.402c-0.038,0.038-0.068,0.08-0.105,0.118
		c-0.313,0.284-0.631,0.564-0.929,0.861c-0.497,0.494-0.912,1.067-1.326,1.638c-0.311,0.329-0.595,0.672-0.853,1.034
		c-0.364,0.358-0.403,0.475-0.201,0.284c-0.082,0.117-0.165,0.233-0.248,0.35c-0.102,0.128-0.201,0.258-0.295,0.391
		c-0.15,0.2-0.298,0.4-0.469,0.592c-0.48,0.54-1.16,1.008-1.516,1.648c-0.328,0.59-0.718,1.161-1.25,1.586
		c-0.075,0.06-0.116,0.127-0.142,0.196c-0.114-0.001-0.232,0.044-0.333,0.164c-1.545,1.825-1.822,3.893-1.191,6.207
		c0.547,2.008,3.505,1.676,4.982,1.704c2.226,0.042,4.456,0,6.687-0.062c0.042,0.001,0.084,0.004,0.126,0.005
		c0.054,0.001,0.1-0.01,0.152-0.012c4.791-0.135,9.585-0.351,14.347-0.029c0.175,0.012,0.298-0.057,0.377-0.159
		c0.087-0.01,0.174-0.021,0.261-0.03c0.02,0.002,0.034,0.011,0.055,0.012c4.208,0.091,8.657,0.405,12.844,0.063
		c0.292-0.024,0.444-0.247,0.47-0.476c0.049-0.044,0.086-0.104,0.126-0.16c0.046-0.014,0.093-0.025,0.14-0.057
		c0.417-0.279,0.659-0.592,0.922-1.018c0.398-0.644,0.94-1.139,1.524-1.605c0.492-0.393,0.817-0.852,1.082-1.418
		c0.295-0.631,0.854-1.266,1.307-1.803c0.019-0.023,0.024-0.048,0.039-0.071c1.143-1.173,2.077-2.604,3.143-3.859
		c0.077-0.091,0.152-0.187,0.229-0.278c0.298-0.3,0.565-0.625,0.802-0.972c0.773-0.943,1.54-1.898,2.287-2.85
		c0.065-0.083,0.091-0.17,0.103-0.258c0.34-0.378,0.742-0.668,1.069-1.054C102.155,43.768,102.157,43.381,101.854,43.219z"/>
	<g>
		
			<line fill="none" stroke="#000000" stroke-width="0.1" stroke-miterlimit="10" x1="87.615" y1="54.488" x2="100.913" y2="38.182"/>
		
			<line fill="none" stroke="#000000" stroke-width="0.1" stroke-miterlimit="10" x1="87.466" y1="55.026" x2="100.764" y2="38.721"/>
		
			<line fill="none" stroke="#000000" stroke-width="0.1" stroke-miterlimit="10" x1="87.359" y1="55.574" x2="100.657" y2="39.268"/>
		
			<line fill="none" stroke="#000000" stroke-width="0.1" stroke-miterlimit="10" x1="87.359" y1="55.926" x2="100.657" y2="39.621"/>
		
			<line fill="none" stroke="#000000" stroke-width="0.1" stroke-miterlimit="10" x1="87.359" y1="56.278" x2="100.657" y2="39.973"/>
		
			<line fill="none" stroke="#000000" stroke-width="0.1" stroke-miterlimit="10" x1="87.267" y1="56.746" x2="100.565" y2="40.439"/>
		
			<line fill="none" stroke="#000000" stroke-width="0.1" stroke-miterlimit="10" x1="87.359" y1="57.047" x2="100.657" y2="40.741"/>
		
			<line fill="none" stroke="#000000" stroke-width="0.1" stroke-miterlimit="10" x1="87.466" y1="57.341" x2="100.764" y2="41.036"/>
		
			<line fill="none" stroke="#000000" stroke-width="0.1" stroke-miterlimit="10" x1="87.615" y1="57.494" x2="100.913" y2="41.188"/>
		
			<line fill="none" stroke="#000000" stroke-width="0.1" stroke-miterlimit="10" x1="87.615" y1="57.859" x2="100.913" y2="41.554"/>
		
			<line fill="none" stroke="#000000" stroke-width="0.1" stroke-miterlimit="10" x1="87.615" y1="58.191" x2="100.913" y2="41.885"/>
		<line fill="none" stroke="#000000" stroke-width="0.1" stroke-miterlimit="10" x1="87.862" y1="58.259" x2="101.16" y2="41.954"/>
		
			<line fill="none" stroke="#000000" stroke-width="0.1" stroke-miterlimit="10" x1="88.064" y1="58.381" x2="101.362" y2="42.076"/>
		<line fill="none" stroke="#000000" stroke-width="0.1" stroke-miterlimit="10" x1="88.175" y1="58.615" x2="101.473" y2="42.31"/>
		
			<line fill="none" stroke="#000000" stroke-width="0.1" stroke-miterlimit="10" x1="88.293" y1="58.868" x2="101.592" y2="42.562"/>
		<line fill="none" stroke="#000000" stroke-width="0.1" stroke-miterlimit="10" x1="88.352" y1="59.097" x2="101.65" y2="42.792"/>
		<line fill="none" stroke="#000000" stroke-width="0.1" stroke-miterlimit="10" x1="88.492" y1="59.339" x2="101.79" y2="43.034"/>
		
			<line fill="none" stroke="#000000" stroke-width="0.1" stroke-miterlimit="10" x1="88.667" y1="59.457" x2="101.965" y2="43.151"/>
		
			<line fill="none" stroke="#000000" stroke-width="0.1" stroke-miterlimit="10" x1="88.822" y1="59.667" x2="102.154" y2="43.319"/>
	</g>
	<g>
		<line fill="none" stroke="#000000" stroke-width="0.1" stroke-miterlimit="10" x1="49.791" y1="52.555" x2="88.503" y2="52.555"/>
		<line fill="none" stroke="#000000" stroke-width="0.1" stroke-miterlimit="10" x1="49.536" y1="52.943" x2="88.248" y2="52.943"/>
		<line fill="none" stroke="#000000" stroke-width="0.1" stroke-miterlimit="10" x1="49.307" y1="53.332" x2="88.019" y2="53.332"/>
		<line fill="none" stroke="#000000" stroke-width="0.1" stroke-miterlimit="10" x1="49.182" y1="53.72" x2="87.894" y2="53.72"/>
		<line fill="none" stroke="#000000" stroke-width="0.1" stroke-miterlimit="10" x1="48.869" y1="54.109" x2="87.582" y2="54.109"/>
		<line fill="none" stroke="#000000" stroke-width="0.1" stroke-miterlimit="10" x1="48.753" y1="54.498" x2="87.466" y2="54.498"/>
		<line fill="none" stroke="#000000" stroke-width="0.1" stroke-miterlimit="10" x1="48.744" y1="54.886" x2="87.457" y2="54.886"/>
		<line fill="none" stroke="#000000" stroke-width="0.1" stroke-miterlimit="10" x1="48.682" y1="55.274" x2="87.394" y2="55.274"/>
		<line fill="none" stroke="#000000" stroke-width="0.1" stroke-miterlimit="10" x1="48.577" y1="55.663" x2="87.29" y2="55.663"/>
		<line fill="none" stroke="#000000" stroke-width="0.1" stroke-miterlimit="10" x1="48.494" y1="56.052" x2="87.207" y2="56.052"/>
		<line fill="none" stroke="#000000" stroke-width="0.1" stroke-miterlimit="10" x1="48.494" y1="56.44" x2="87.207" y2="56.44"/>
		<line fill="none" stroke="#000000" stroke-width="0.1" stroke-miterlimit="10" x1="48.682" y1="56.829" x2="87.394" y2="56.829"/>
		<line fill="none" stroke="#000000" stroke-width="0.1" stroke-miterlimit="10" x1="48.744" y1="57.217" x2="87.457" y2="57.217"/>
		<line fill="none" stroke="#000000" stroke-width="0.1" stroke-miterlimit="10" x1="48.885" y1="57.606" x2="87.597" y2="57.606"/>
		<line fill="none" stroke="#000000" stroke-width="0.1" stroke-miterlimit="10" x1="48.932" y1="57.995" x2="87.644" y2="57.995"/>
		<line fill="none" stroke="#000000" stroke-width="0.1" stroke-miterlimit="10" x1="48.916" y1="58.383" x2="87.628" y2="58.383"/>
		<line fill="none" stroke="#000000" stroke-width="0.1" stroke-miterlimit="10" x1="49.244" y1="58.772" x2="87.957" y2="58.772"/>
		<line fill="none" stroke="#000000" stroke-width="0.1" stroke-miterlimit="10" x1="49.463" y1="59.16" x2="88.175" y2="59.16"/>
		<line fill="none" stroke="#000000" stroke-width="0.1" stroke-miterlimit="10" x1="49.791" y1="59.549" x2="88.503" y2="59.549"/>
	</g>
	<g>
		
			<line fill="none" stroke="#3D58A7" stroke-width="0.5" stroke-miterlimit="10" x1="89.092" y1="59.938" x2="102.428" y2="43.541"/>
		<line fill="none" stroke="#3D58A7" stroke-width="0.5" stroke-miterlimit="10" x1="89.092" y1="52.166" x2="102.428" y2="35.77"/>
		<line fill="none" stroke="#3D58A7" stroke-width="0.5" stroke-miterlimit="10" x1="89.238" y1="59.938" x2="50.171" y2="59.938"/>
		<line fill="none" stroke="#3D58A7" stroke-width="0.5" stroke-miterlimit="10" x1="89.238" y1="52.166" x2="50.171" y2="52.166"/>
		<path fill="none" stroke="#3D58A7" stroke-width="0.5" stroke-miterlimit="10" d="M50.285,52.166
			c-0.832,0.454-1.772,1.74-1.772,3.886s0.886,3.505,1.772,3.886"/>
		<path fill="none" stroke="#3D58A7" stroke-width="0.5" stroke-miterlimit="10" d="M102.544,35.968
			c-0.832,0.454-1.772,1.74-1.772,3.886s0.886,3.505,1.772,3.886"/>
		<path fill="none" stroke="#3D58A7" stroke-width="0.5" stroke-miterlimit="10" d="M89.238,52.166
			c-0.832,0.454-1.772,1.74-1.772,3.886s0.886,3.505,1.772,3.886"/>
		<line fill="none" stroke="#3D58A7" stroke-width="0.5" stroke-miterlimit="10" x1="50.285" y1="52.166" x2="63.621" y2="35.77"/>
		<line fill="none" stroke="#3D58A7" stroke-width="0.5" stroke-miterlimit="10" x1="102.544" y1="35.77" x2="63.477" y2="35.77"/>
	</g>
</g>
</svg>
